# xmcd
#
# Track frame offsets: 
#        150
#        24669
#        48022
#        69075
#        88519
#        112556
#        134315
#        158644
#        180877
#        204138
#        229624
#        253207
#        275904
#        299001
#        320601
#
# Disc length: 4514 seconds
#
# Revision: 7
# Processed by: cddbd v1.5.2PL0 Copyright (c) Steve Scherf et al.
# Submitted via: ExactAudioCopy v1.3
#
DISCID=c311a00f
DTITLE=?????? - Utada Hikaru SINGLE COLLECTION VOL.1
DYEAR=2004
DGENRE=JPop
TTITLE0=time will tell
TTITLE1=Automatic
TTITLE2=Movin'on without you
TTITLE3=First Love
TTITLE4=Addicted To You [UP-IN-HEAVEN MIX]
TTITLE5=Wait and See ~???~
TTITLE6=For You
TTITLE7=????????
TTITLE8=Can You Keep A Secret ?
TTITLE9=FINAL DISTANCE
TTITLE10=traveling
TTITLE11=?
TTITLE12=SAKURA?????
TTITLE13=Letters
TTITLE14=COLORS
EXTD=YEAR: 2004
EXTT0=
EXTT1=
EXTT2=
EXTT3=
EXTT4=
EXTT5=
EXTT6=
EXTT7=
EXTT8=
EXTT9=
EXTT10=
EXTT11=
EXTT12=
EXTT13=
EXTT14=
PLAYORDER=
